# xmcd CD database file
#
# Track frame offsets:
#	150
#	23840
#	45373
#	64225
#	83113
#	104266
#	121109
#	143767
#	168107
#	187487
#	207728
#	232740
#	254323
#
# Disc length: 3689 seconds
#
# Revision: 1
# Processed by: cddbd v1.5.2PL0 Copyright (c) Steve Scherf et al.
# Submitted via: CDex 1.51
#
DISCID=ad0e670d
DTITLE=Jan Lundgren Trio - European Standards
DYEAR=2009
DGENRE=Jazz
TTITLE0=Computer Liebe
TTITLE1=Les Moulins De Mon Coeur
TTITLE2=Here, There And Everywhere
TTITLE3=A Csitari Hegyek Alatt
TTITLE4=Stets I Truure
TTITLE5=Yo Vivo En Amorao
TTITLE6=Un Homme Et Une Femme
TTITLE7=Reginella
TTITLE8=Il Postino
TTITLE9=September Song
TTITLE10=Rosemary's Baby
TTITLE11=Wien, Du Stadt Meiner Träume
TTITLE12=Pavane - Thoughts Of A Septuagenarian
EXTD=YEAR: 2009
EXTT0=
EXTT1=
EXTT2=
EXTT3=
EXTT4=
EXTT5=
EXTT6=
EXTT7=
EXTT8=
EXTT9=
EXTT10=
EXTT11=
EXTT12=
PLAYORDER=
